<svg width="1438" height="413" viewBox="0 0 1438 413" fill="none" xmlns="http://www.w3.org/2000/svg">
<path fill-rule="evenodd" clip-rule="evenodd" d="M1438 413C958.048 413 477.954 413 -2 413C-2 402.676 -2 14.8517 -2 4.5275C1.5622 4.72685 3.74202 5.72677 7.90002 5.32172C11.6314 4.95796 15.8164 2.67219 22.3 3.73328C24.7534 4.13516 24.0011 4.95796 27.7001 5.32172C36.5003 0.221966 59.7166 0.998729 75.4 2.54192C84.9778 3.48467 89.4328 0.401484 97 1.35059C100.859 1.83428 101.986 3.99856 106 3.33617C111.126 2.75161 111.317 1.46655 118.6 1.35059C119.284 1.72308 126.057 4.42345 126.7 4.5275C131.351 5.28043 138.512 3.74279 142 4.92461C143.377 5.39082 145.568 7.44948 146.5 8.10155C152.508 6.51626 169.657 4.36152 180.7 5.71886C184.802 6.22319 187.049 8.90848 193.3 8.10155C194.2 7.70443 195.1 7.3073 196 6.91019C202.599 6.91019 209.201 6.91019 215.8 6.91019C220.037 6.36296 228.204 4.9945 232 4.5275C236.5 4.79198 241 5.05724 245.5 5.32172C252.77 4.25745 252.313 1.4451 265.3 1.35059C269.255 3.74043 272.631 2.48317 280.6 3.33617C281.028 3.38223 282.368 4.1971 283.3 4.13039C285.586 3.96678 286.959 2.45931 291.4 2.93903C295.821 3.41636 298.638 5.66643 302.2 6.11597C306.624 6.67431 312.915 5.18671 317.5 6.51308C319.809 7.18182 322.09 9.17215 324.7 9.68999C327.699 9.82262 330.701 9.95449 333.7 10.0871C334.899 10.6169 336.101 11.1458 337.3 11.6756C341.094 12.1315 341.663 10.7638 343.6 10.4842C348.1 10.4842 352.6 10.4842 357.1 10.4842C359.283 10.1888 361.283 8.945 365.2 9.29288C369.659 9.6884 371.234 11.5247 374.2 12.0727C378.7 11.94 383.2 11.8082 387.7 11.6756C388.875 11.8034 392.281 12.7843 393.1 12.8669C397.593 13.3196 404.748 11.7121 407.5 11.2785C411.699 11.2785 415.901 11.2785 420.1 11.2785C426.191 10.4834 434.646 10.4159 440.8 9.68999C446.2 9.55735 451.6 9.42551 457 9.29288C460.737 8.64955 466.601 6.96738 470.5 6.51308C478.757 5.55126 495.804 10.1054 502 9.68999C517.392 8.65749 529.351 5.16924 543.4 4.13039C551.63 3.52201 559.069 6.28195 568.6 4.92461C573.631 4.20821 575.24 3.00495 583 2.93903C583.148 3.02639 608.79 10.0466 609.1 10.0871C613.737 10.6963 626.47 9.18724 633.4 9.68999C636.539 9.91793 635.499 11.3031 639.7 10.8813C640.6 10.4842 641.5 10.0871 642.4 9.68999C649.6 9.68999 656.8 9.68999 664 9.68999C664.9 9.16023 665.8 8.6313 666.7 8.10155C671.457 6.81331 679.071 7.5027 683.8 8.10155C688.599 8.10155 693.401 8.10155 698.2 8.10155C703.326 8.81794 722.81 11.8439 727 8.89577C729.115 7.68298 728.654 6.18107 729.7 5.32172C730.762 5.00323 731.214 5.01436 733.3 4.92461C737.26 6.60996 747.518 3.50453 751.3 4.13039C753.948 4.5688 754.085 5.63229 759.4 5.71886C759.4 5.45438 759.4 5.18909 759.4 4.92461C758.723 4.4989 758.858 4.54895 758.5 3.73328C760.343 3.45053 762.707 3.33855 765.7 3.33617C766.731 3.91437 767.502 4.2098 768.4 4.92461C774.993 2.62849 797.92 -0.9352 811.6 0.953479C814.518 1.35615 814.631 3.06134 819.7 2.54192C820.299 2.27744 820.901 2.01218 821.5 1.7477C828.999 1.88034 836.501 2.01217 844 2.14481C846.709 1.66112 854.021 -0.615145 860.2 0.159229C861.1 0.556344 862 0.953474 862.9 1.35059C867.4 1.48323 871.9 1.61506 876.4 1.7477C877.3 2.14481 878.2 2.54191 879.1 2.93903C883.935 3.76979 888.428 2.95176 892.6 3.73328C895.556 4.28686 897.318 5.70217 900.7 6.11597C908.199 6.2486 915.701 6.38044 923.2 6.51308C924.912 6.73784 926.553 7.89108 927.7 8.10155C932.799 8.10155 937.901 8.10155 943 8.10155C945.779 6.54247 954.837 3.94852 959.2 3.33617C968.2 3.4688 977.2 3.60064 986.2 3.73328C986.799 3.33616 987.401 2.93903 988 2.54192C998.537 0.437209 1014.03 5.15812 1020.4 6.51308C1024.97 7.48601 1026.99 5.28521 1031.2 5.71886C1037.21 6.33677 1044.54 8.63208 1051.9 8.89577C1058.45 4.86267 1067.32 8.69959 1076.2 9.29288C1085.01 9.88219 1091.13 5.50439 1101.4 7.3073C1106.14 8.13965 1112.93 10.8098 1122.1 9.68999C1127.78 8.99662 1133.39 6.42096 1139.2 5.71886C1144.45 5.08506 1149.78 6.52419 1153.6 6.91019C1163.76 7.93713 1168.78 4.80788 1177 5.71886C1180.68 6.1263 1182.9 7.55988 1186 8.10155C1190.65 8.91563 1194.29 8.67575 1198.6 9.68999C1199.8 10.2197 1201 10.7487 1202.2 11.2785C1209.4 11.2785 1216.6 11.2785 1223.8 11.2785C1225.22 11.4897 1226.88 12.6565 1228.3 12.8669C1232.42 13.4777 1256.73 13.4372 1259.8 12.8669C1262.11 12.4388 1266.5 10.8663 1269.7 10.4842C1274.39 9.9243 1276.02 11.1514 1280.5 11.2785C1282.27 10.0188 1284.6 9.14675 1286.8 8.10155C1296.78 8.05945 1306.07 8.59237 1313.8 8.89577C1315.7 7.53128 1316.84 6.98484 1321.9 6.91019C1323.72 7.75207 1324.55 7.96256 1328.2 8.10155C1329.97 6.97056 1330.91 6.90463 1335.4 6.91019C1338.99 8.47244 1341.96 7.31526 1348 8.10155C1351.34 8.5352 1360.98 12.0695 1366 11.2785C1367.18 11.0934 1369.63 9.80038 1371.4 9.68999C1375.95 9.40565 1378.28 12.523 1384 11.2785C1391 9.75671 1396.09 6.78867 1405.6 6.51308C1417.7 11.2626 1428.62 5.68548 1438 4.92461C1438 15.1162 1438 402.808 1438 413Z" fill="black"/>
</svg>
